<?xml version="1.0" encoding="utf-8"?>
<!-- Generator: Adobe Illustrator 24.0.2, SVG Export Plug-In . SVG Version: 6.00 Build 0)  -->
<svg version="1.1" id="Capa_1" xmlns="http://www.w3.org/2000/svg" xmlns:xlink="http://www.w3.org/1999/xlink" x="0px" y="0px"
	 viewBox="0 0 1000 1000" style="enable-background:new 0 0 1000 1000;" xml:space="preserve">
<style type="text/css">
	.st0{fill:#E72000;}
	.st1{stroke:#000000;stroke-miterlimit:10;}
	.st2{fill:#FFFFFF;}
	.st3{fill:#FFFFFF;stroke:#000000;stroke-miterlimit:10;}
	.st4{fill:#FF2800;}
</style>
<circle class="st0" cx="496.79" cy="601.99" r="389.21"/>
<circle class="st1" cx="397.7" cy="64.52" r="41.11"/>
<circle class="st1" cx="608.87" cy="64.02" r="41.11"/>
<ellipse transform="matrix(0.8416 -0.5401 0.5401 0.8416 -120.6653 220.1142)" class="st1" cx="314.95" cy="315.78" rx="142.42" ry="67.64"/>
<ellipse transform="matrix(0.5 -0.866 0.866 0.5 64.3446 743.0161)" class="st1" cx="675.64" cy="315.78" rx="67.64" ry="142.42"/>
<ellipse class="st2" cx="503.34" cy="157.79" rx="114.04" ry="72.79"/>
<path class="st1" d="M427.59,136.64c0,0,33.92-46.56,43.62,0c13.3,63.86-21.81,65.3-21.81,65.3l0,0l0,0
	c-3.99,0.52-17.46,1.78-26.42-6.83C410.99,183.59,410.5,157.5,427.59,136.64z"/>
<path class="st1" d="M579.95,136.64c0,0-33.92-46.56-43.62,0c-13.3,63.86,21.81,65.3,21.81,65.3l0,0l0,0
	c3.99,0.52,17.46,1.78,26.42-6.83C596.55,183.59,597.03,157.5,579.95,136.64z"/>
<path class="st3" d="M494.81,215.44"/>
<path class="st3" d="M417.89,186.26"/>
<path class="st1" d="M503.2,200.85c-7.4,0-18.64-11.27-15.42-18.84c4.43-10.41,27.41-10.28,30.83,0
	C520.85,188.71,510.05,200.85,503.2,200.85z"/>
<path class="st4" d="M587.47,671.4c0,0-93.67-7.82-155.04,35.18s-158.27-82.08-90.44-148.53s174.42-117.26,306.84-62.54
	S681.14,733.94,587.47,671.4z"/>
<path class="st2" d="M691.07,342.88c0,78.36-89.08,91.37-192.71,91.37s-182.57-13.01-182.57-91.37S399.79,201,503.42,201
	S691.07,264.52,691.07,342.88z"/>
<path class="st1" d="M375.42,353.61c49.08,44.89-21.25,76.73-76.87,132.35S206.17,587.19,174,555.02s-13.15-103.33,42.47-158.94
	S341.85,322.91,375.42,353.61z"/>
<path class="st1" d="M618.94,343c-32.16,32.16,21.25,76.73,76.87,132.35c55.62,55.62,92.38,101.23,124.54,69.07
	s13.15-103.33-42.47-158.94C722.26,329.85,651.1,310.84,618.94,343z"/>
</svg>
